<svg xmlns="http://www.w3.org/2000/svg" width="1024" height="1536" viewBox="0 0 1024 1536" version="1.1">
	<path d="M 484.500 231.615 C 421.363 237.872, 371.632 254.351, 322.500 285.296 C 290.192 305.645, 257.079 336.970, 233.996 369.022 C 200.342 415.752, 178.595 473.353, 173.060 530.424 C 171.712 544.320, 171.693 575.689, 173.025 589.144 C 180.664 666.313, 221.965 764.453, 311.842 919 C 359.817 1001.495, 420.021 1094.417, 494.708 1201.245 C 507.955 1220.193, 509.760 1221.768, 514.913 1218.875 C 521.262 1215.311, 607.998 1087.687, 656.188 1011 C 732.056 890.268, 790.654 780.741, 821.508 702 C 837.394 661.458, 844.439 636.316, 849.670 601.500 C 852.209 584.596, 852.196 537.026, 849.646 519 C 840.965 457.622, 817.941 403.583, 780.414 356.500 C 769.372 342.646, 742.762 316.017, 729 305.049 C 680.443 266.349, 622.062 242.061, 556.795 233.407 C 545.123 231.859, 494.660 230.609, 484.500 231.615 M 454.500 295.586 C 423.935 297.886, 409.371 300.044, 387.093 305.578 C 323.771 321.306, 282.087 351.806, 274.398 388.035 C 270.143 408.079, 278.313 429.471, 297.528 448.605 C 321.214 472.191, 364.829 492.631, 412.818 502.636 C 420.375 504.211, 421.086 504.559, 420.581 506.435 C 420.275 507.571, 419.291 513.450, 418.393 519.500 C 416.020 535.483, 416.878 558.023, 420.367 571.372 C 429.331 605.673, 452.933 627.409, 489.443 634.988 C 492.499 635.623, 495 636.283, 495 636.455 C 495 637.744, 479.518 671.142, 473.886 682 C 470.035 689.425, 467.342 695.046, 467.900 694.492 C 470.371 692.041, 490.600 662.331, 497.693 650.739 L 505.500 637.978 509 638.458 C 510.925 638.722, 521.500 639.238, 532.500 639.604 C 553.873 640.317, 570.167 638.953, 586.346 635.099 L 594 633.275 594 637.927 C 594 654.765, 581.901 673.176, 565.787 680.861 C 552.350 687.268, 532.775 690.715, 515.719 689.676 C 502.098 688.846, 504 689.824, 518.447 691.079 C 531.438 692.207, 548.551 691.086, 559.910 688.362 C 571.032 685.694, 584.263 678.737, 590.971 672.029 C 600.091 662.909, 606.845 646.690, 607.017 633.500 L 607.070 629.500 616.785 626.305 C 627.653 622.731, 654.284 611.950, 653.696 611.363 C 653.487 611.154, 648.566 612.767, 642.761 614.948 C 634.608 618.010, 609.145 626, 607.538 626 C 607.384 626, 606.936 622.302, 606.541 617.783 C 604.327 592.394, 590.144 560.064, 558.671 508.664 L 552.036 497.829 553.003 483.664 C 556.539 431.890, 551.464 368.530, 540.855 332 C 536.508 317.032, 531.150 303.488, 528.648 301.146 C 526.942 299.550, 523.720 298.813, 513 297.566 C 499.813 296.033, 464.463 294.837, 454.500 295.586 M 423.059 313.073 C 370.160 317.726, 324.949 334.843, 300.500 359.477 C 272.661 387.526, 274.763 418.786, 306.508 448.836 C 333.389 474.281, 376.540 492.910, 433.217 503.537 C 441.312 505.055, 447.724 506.637, 447.467 507.054 C 447.209 507.471, 446.078 513.142, 444.954 519.656 C 442.313 534.958, 442.088 558.886, 444.476 570.500 C 449.817 596.480, 468.097 615.346, 496.713 624.410 C 499.420 625.268, 499.672 624.723, 507.347 601.353 C 514.058 580.918, 516.208 573.120, 519.440 557.499 C 532.257 495.551, 531.879 428.667, 518.369 368 C 515.420 354.757, 508.129 329.101, 504.985 320.901 L 502.838 315.302 493.669 314.063 C 482.071 312.495, 436.840 311.861, 423.059 313.073 M 545.207 539.058 C 544.616 540.951, 542.955 546.918, 541.516 552.318 C 536.057 572.808, 525.320 600.678, 515.635 619.500 C 513.371 623.900, 511.379 627.792, 511.209 628.149 C 511.040 628.505, 515.311 629.630, 520.700 630.649 C 534.079 633.176, 571.220 633.226, 584.391 630.733 C 589.281 629.808, 593.521 628.812, 593.813 628.520 C 594.877 627.457, 591.791 614.384, 588.394 605.555 C 582.722 590.818, 559.843 552.217, 548.685 538.558 L 546.282 535.616 545.207 539.058 M 648.489 720.250 C 645.006 729.955, 621.937 793.949, 619.380 801 C 613.868 816.195, 611.600 819.350, 604.687 821.438 C 603.689 821.739, 603.153 822.439, 603.496 822.993 C 603.860 823.582, 609.286 824, 616.559 824 C 626.448 824, 629 823.718, 629 822.625 C 629 821.869, 627.707 820.991, 626.126 820.675 C 624.546 820.359, 622.963 819.347, 622.610 818.425 C 622.256 817.503, 623.885 811.075, 626.233 804.125 L 630.500 791.500 647.500 791.254 L 664.500 791.009 669.323 803.506 C 671.976 810.379, 674 816.790, 673.821 817.752 C 673.641 818.719, 672.046 819.927, 670.248 820.457 C 668.462 820.983, 667 821.996, 667 822.707 C 667 823.711, 670.582 824, 683 824 C 695.909 824, 699 823.734, 699 822.625 C 699 821.869, 697.666 820.983, 696.035 820.657 C 694.079 820.266, 692.223 818.778, 690.578 816.282 C 689.207 814.202, 679.698 791.462, 669.448 765.750 C 659.197 740.038, 650.389 719, 649.874 719 C 649.359 719, 648.735 719.563, 648.489 720.250 M 287.417 721.917 C 286.386 722.946, 287.211 723.793, 289.750 724.313 C 291.262 724.623, 293.400 725.542, 294.500 726.357 C 296.448 727.800, 296.500 728.999, 296.500 772.508 L 296.500 817.177 294.139 819.088 C 292.841 820.140, 290.703 821, 289.389 821 C 288.075 821, 287 821.563, 287 822.250 C 287 823.198, 291.113 823.521, 304 823.587 C 317.563 823.656, 321 823.403, 321 822.337 C 321 821.601, 320.070 821, 318.934 821 C 315.380 821, 313.126 819.114, 312.049 815.238 C 310.820 810.812, 310.624 772.683, 311.833 773.167 C 312.657 773.497, 321.550 783.314, 342.173 806.661 C 355.523 821.776, 359.311 824, 371.696 824 C 378.115 824, 380 823.685, 380 822.611 C 380 821.829, 378.543 820.949, 376.663 820.597 C 374.200 820.134, 371.254 817.814, 365.413 811.735 C 355.985 801.923, 324.623 767.142, 324.212 766.041 C 323.744 764.791, 358.718 731.794, 364.209 728.303 C 366.975 726.545, 370.535 724.822, 372.119 724.474 C 373.704 724.126, 375 723.314, 375 722.671 C 374.999 721.826, 370.539 721.493, 359 721.476 C 346.691 721.457, 343 721.745, 343 722.726 C 343 723.427, 343.850 724, 344.889 724 C 345.928 724, 347.807 724.833, 349.064 725.851 L 351.349 727.701 349.282 730.601 C 348.145 732.195, 339.179 741.375, 329.357 751 L 311.500 768.500 311.228 750.897 C 310.894 729.355, 311.673 725.952, 317.252 724.574 C 319.313 724.064, 321 723.164, 321 722.574 C 321 721.547, 288.426 720.910, 287.417 721.917 M 383 722.750 C 383 723.438, 383.654 724, 384.453 724 C 387.924 724, 391.025 726.431, 391.991 729.909 C 393.478 735.259, 393.214 811.543, 391.694 816 C 390.722 818.848, 389.801 819.673, 386.750 820.426 C 384.688 820.936, 383 821.848, 383 822.454 C 383 823.212, 388.154 823.556, 399.500 823.556 C 412.225 823.556, 416 823.263, 416 822.278 C 416 821.575, 414.953 821, 413.674 821 C 412.395 821, 410.370 819.958, 409.174 818.686 C 407.087 816.463, 407 815.548, 407 795.686 L 407 775 433.500 775 L 460 775 460 795.545 C 460 816.026, 459.992 816.099, 457.545 818.545 C 456.195 819.895, 454.170 821, 453.045 821 C 451.920 821, 451 821.591, 451 822.314 C 451 823.343, 454.468 823.634, 467 823.657 C 478.300 823.678, 483 823.353, 483 822.550 C 483 821.925, 481.544 820.983, 479.764 820.457 C 477.936 819.916, 475.986 818.413, 475.279 817 C 473.630 813.700, 473.449 733.880, 475.080 729.200 C 475.850 726.992, 477.142 725.778, 479.580 724.974 C 481.461 724.353, 483 723.317, 482.999 722.672 C 482.999 721.825, 478.568 721.500, 466.999 721.500 C 455.445 721.500, 450.999 721.825, 451 722.671 C 451 723.314, 452.349 724.137, 453.999 724.500 C 459.529 725.714, 460 727.539, 460 747.723 L 460 766 433.500 766 L 407 766 407 747.723 C 407 727.539, 407.471 725.714, 413.001 724.500 C 414.651 724.137, 416 723.314, 416 722.671 C 416 721.824, 411.436 721.500, 399.500 721.500 C 386.967 721.500, 383 721.801, 383 722.750 M 489 722.457 C 489 723.065, 490.311 724.056, 491.912 724.661 C 493.514 725.265, 495.486 727.052, 496.295 728.630 C 497.618 731.214, 511.600 775.558, 522.353 811.274 C 525.958 823.246, 526.757 825.011, 528.463 824.774 C 529.989 824.561, 531.287 822.055, 534.301 813.500 C 542.525 790.156, 553.263 759.322, 554.500 755.500 C 555.309 752.999, 555.994 752.062, 556.327 753 C 578.819 816.298, 582.166 825, 584.015 825 C 585.213 825, 586.176 823.436, 587.246 819.750 C 594.601 794.427, 613.643 733.708, 615.183 730.668 C 616.251 728.560, 618.444 726.085, 620.056 725.168 C 625.853 721.870, 623.859 721, 610.500 721 C 600.056 721, 598 721.247, 598 722.500 C 598 723.325, 598.800 724, 599.777 724 C 602.872 724, 606.001 726.925, 605.988 729.807 C 605.978 732.219, 587.659 797.674, 586.736 798.597 C 586.528 798.805, 585.570 796.394, 584.607 793.238 C 583.001 787.974, 562.047 726.780, 560.471 722.750 C 560.094 721.788, 559.403 721, 558.934 721 C 558.466 721, 552.349 738.392, 545.341 759.649 C 538.333 780.906, 532.477 797.894, 532.327 797.399 C 523.234 767.350, 513 731.024, 513 728.796 C 513 726.415, 513.594 725.602, 516 724.694 C 522.232 722.342, 519.142 721.501, 504 721.427 C 493.680 721.376, 489 721.698, 489 722.457 M 706 722.543 C 706 723.117, 707.456 724.017, 709.236 724.543 C 714.941 726.230, 714.969 726.472, 714.985 773.295 L 715 816.091 712.545 818.545 C 711.195 819.895, 709.170 821, 708.045 821 C 706.920 821, 706 821.563, 706 822.250 C 706.001 823.195, 710.022 823.525, 722.500 823.602 C 735.747 823.684, 739 823.437, 739 822.352 C 739 821.577, 737.934 821, 736.500 821 C 732.945 821, 730.246 817.841, 729.512 812.822 C 729.164 810.445, 729.019 790.659, 729.190 768.854 C 729.479 731.902, 729.626 729.068, 731.354 727.160 C 732.373 726.035, 734.511 724.827, 736.104 724.477 C 737.697 724.127, 738.999 723.314, 738.999 722.671 C 738.998 721.824, 734.433 721.500, 722.498 721.500 C 711.710 721.500, 705.999 721.861, 706 722.543 M 639.808 764.559 L 633.117 784 647.453 784 L 661.789 784 656.552 770.750 C 653.671 763.462, 650.513 755.025, 649.534 752 C 648.555 748.975, 647.472 746.189, 647.127 745.809 C 646.782 745.428, 643.489 753.866, 639.808 764.559 M 300 845.240 C 300 845.658, 300.675 846, 301.500 846 C 302.762 846, 303 848.217, 303 859.950 C 303 872.181, 302.784 874.026, 301.250 874.920 C 299.894 875.710, 300.626 875.939, 304.500 875.938 C 308.869 875.937, 309.279 875.769, 307.750 874.608 C 306.419 873.598, 306 871.816, 306 867.165 L 306 861.050 308.934 861.637 C 313.158 862.482, 317 858.481, 317 853.237 C 317 847.051, 315.271 845.615, 307.093 845.007 C 303.192 844.717, 300 844.822, 300 845.240 M 330 845.227 C 330 845.652, 330.450 846, 331 846 C 331.619 846, 332 851.317, 332 859.950 C 332 872.181, 331.784 874.026, 330.250 874.920 C 328.909 875.701, 329.786 875.939, 334 875.939 C 338.214 875.939, 339.091 875.701, 337.750 874.920 C 336.394 874.130, 336 872.562, 336 867.950 C 336 860.198, 337.555 860.212, 341.838 868.001 C 345.165 874.054, 347.355 876.027, 350.684 875.968 C 352.353 875.939, 352.366 875.835, 350.847 874.679 C 349.937 873.987, 347.587 870.754, 345.624 867.496 L 342.055 861.571 344.255 859.229 C 347.008 856.298, 347.256 849.828, 344.713 847.285 C 342.922 845.494, 330 843.687, 330 845.227 M 363 845.250 C 363 845.663, 363.450 846, 364 846 C 365.509 846, 365.319 873.281, 363.800 874.800 C 362.867 875.733, 363.700 875.993, 367.550 875.970 C 371.399 875.946, 372.111 875.713, 370.750 874.920 C 369.216 874.026, 369 872.181, 369 859.950 C 369 848.217, 369.238 846, 370.500 846 C 371.325 846, 372 845.663, 372 845.250 C 372 844.837, 369.975 844.500, 367.500 844.500 C 365.025 844.500, 363 844.837, 363 845.250 M 381 845.143 C 381 845.497, 381.655 846.037, 382.456 846.345 C 383.291 846.665, 385.883 853.106, 388.535 861.452 C 391.079 869.453, 393.461 875.990, 393.830 875.978 C 394.198 875.966, 396.523 869.588, 398.995 861.805 C 401.467 854.022, 404.086 847.057, 404.816 846.327 C 405.918 845.224, 405.581 845.013, 402.821 845.079 C 400.995 845.122, 400.030 845.374, 400.678 845.638 C 401.918 846.144, 401.198 849.358, 396.817 862.882 L 394.749 869.264 391.136 857.961 C 388.508 849.744, 387.860 846.547, 388.761 846.246 C 391.408 845.364, 389.794 844.500, 385.500 844.500 C 383.025 844.500, 381 844.789, 381 845.143 M 418.554 858.750 C 415.924 866.862, 413.062 874.063, 412.195 874.750 C 410.864 875.805, 411.233 875.998, 414.559 875.985 C 417.080 875.975, 418.022 875.666, 417.173 875.128 C 416.118 874.459, 416.074 873.438, 416.961 870.143 C 418.071 866.023, 418.103 866, 422.832 866 C 427.525 866, 427.601 866.051, 428.642 869.952 C 429.377 872.707, 429.379 874.221, 428.648 874.952 C 427.917 875.683, 428.918 876, 431.955 876 C 436.017 876, 436.207 875.882, 434.785 874.250 C 433.947 873.288, 431.140 866.087, 428.547 858.250 C 425.955 850.413, 423.722 844, 423.586 844 C 423.449 844, 421.185 850.638, 418.554 858.750 M 442.079 847 C 442.122 848.375, 442.385 848.938, 442.662 848.250 C 442.945 847.549, 444.886 847, 447.083 847 L 451 847 451 860.450 C 451 872.205, 450.779 874.029, 449.250 874.920 C 447.894 875.710, 448.626 875.939, 452.500 875.939 C 456.374 875.939, 457.106 875.710, 455.750 874.920 C 454.221 874.029, 454 872.205, 454 860.450 L 454 847 457.450 847 C 459.681 847, 461.261 847.618, 461.920 848.750 C 462.777 850.221, 462.944 850.022, 462.970 847.500 L 463 844.500 452.500 844.500 L 442 844.500 442.079 847 M 473.998 845.250 C 473.999 845.663, 474.675 846, 475.500 846 C 476.762 846, 477 848.217, 477 859.950 C 477 872.181, 476.784 874.026, 475.250 874.920 C 473.963 875.669, 475.817 875.947, 482.250 875.970 L 491 876 490.937 872.750 C 490.879 869.800, 490.790 869.708, 489.969 871.750 C 489.246 873.548, 488.275 874, 485.139 874 C 480.584 874, 480 873.082, 480 865.918 L 480 861 483.917 861 C 486.114 861, 488.055 861.549, 488.338 862.250 C 488.615 862.938, 488.842 861.925, 488.842 860 C 488.842 858.075, 488.615 857.063, 488.338 857.750 C 488.055 858.451, 486.114 859, 483.917 859 L 480 859 480 853 L 480 847 483.950 847 C 486.658 847, 488.221 847.551, 488.920 848.750 C 489.796 850.255, 489.943 850.125, 489.970 847.826 C 490 845.175, 489.933 845.150, 481.998 844.826 C 477.596 844.647, 473.996 844.837, 473.998 845.250 M 522.998 845.250 C 522.999 845.663, 523.450 846, 524 846 C 525.509 846, 525.319 873.281, 523.800 874.800 C 522.867 875.733, 523.700 875.993, 527.550 875.970 C 531.399 875.946, 532.111 875.713, 530.750 874.920 C 529.394 874.130, 529 872.562, 529 867.950 C 529 860.046, 530.987 860.050, 534.981 867.962 C 537.968 873.879, 540.249 876, 543.625 876 C 545.226 876, 545.238 875.889, 543.767 874.750 C 542.878 874.063, 540.555 870.816, 538.603 867.535 L 535.055 861.571 537.255 859.229 C 540.029 856.276, 540.232 850.019, 537.646 847.162 C 536.276 845.648, 534.282 845.083, 529.417 844.832 C 525.885 844.649, 522.997 844.837, 522.998 845.250 M 556 845.250 C 556 845.663, 556.450 846, 557 846 C 558.509 846, 558.319 873.281, 556.800 874.800 C 555.867 875.733, 557.396 876, 563.683 876 C 571.221 876, 571.807 875.848, 572.370 873.750 C 573.372 870.011, 573.083 869.436, 571.405 871.832 C 570.150 873.624, 569.031 874.044, 566.155 873.805 L 562.500 873.500 562.202 867.250 L 561.905 861 565.252 861 C 567.094 861, 569.084 861.484, 569.676 862.076 C 570.444 862.844, 570.623 862.480, 570.303 860.806 C 569.908 858.737, 569.392 858.505, 565.927 858.836 L 562 859.210 562 853.105 L 562 847 565.640 847 C 567.890 847, 569.830 847.668, 570.721 848.750 C 572.086 850.406, 572.132 850.402, 571.582 848.668 C 571.262 847.661, 571 846.311, 571 845.668 C 571 844.881, 568.553 844.500, 563.500 844.500 C 559.375 844.500, 556 844.837, 556 845.250 M 588.635 846.073 C 586.575 847.693, 586 849.016, 586 852.132 C 586 855.546, 586.720 856.881, 591 861.406 C 596.067 866.764, 597.260 870.340, 594.800 872.800 C 592.947 874.653, 589.155 874.221, 587.768 872 C 585.988 869.150, 585.048 869.528, 585.903 872.750 C 586.506 875.025, 587.261 875.553, 590.274 875.808 C 595.119 876.217, 597.769 874.643, 598.823 870.727 C 600.010 866.318, 598.779 863.517, 592.944 857.347 C 590.225 854.472, 588 851.488, 588 850.715 C 588 848.990, 591.170 846, 593 846 C 593.738 846, 595.165 846.745, 596.171 847.655 C 597.886 849.207, 598 849.183, 598 847.272 C 598 846.003, 597.150 845.006, 595.750 844.630 C 592.250 843.692, 591.457 843.853, 588.635 846.073 M 612 845.250 C 612 845.663, 612.450 846, 613 846 C 613.619 846, 614 851.317, 614 859.950 C 614 872.181, 613.784 874.026, 612.250 874.920 C 610.962 875.670, 612.781 875.947, 619.137 875.970 L 627.773 876 628.248 872.766 C 628.710 869.614, 628.685 869.589, 627.239 871.766 C 626.141 873.421, 624.778 874, 621.985 874 C 617.600 874, 617 873.028, 617 865.918 L 617 861 620.917 861 C 623.114 861, 625.055 861.549, 625.338 862.250 C 625.615 862.938, 625.842 861.925, 625.842 860 C 625.842 858.075, 625.615 857.063, 625.338 857.750 C 625.055 858.451, 623.114 859, 620.917 859 L 617 859 617 853 L 617 847 621.427 847 C 624.802 847, 625.962 847.416, 626.311 848.750 C 626.567 849.733, 626.819 849.185, 626.884 847.500 L 627 844.500 619.500 844.500 C 615.375 844.500, 612 844.837, 612 845.250 M 640.998 845.250 C 640.999 845.663, 641.450 846, 642 846 C 642.619 846, 643 851.317, 643 859.950 C 643 871.940, 642.765 874.032, 641.330 874.835 C 640.132 875.506, 641.166 875.769, 645 875.769 C 648.834 875.769, 649.868 875.506, 648.670 874.835 C 647.402 874.126, 647 872.468, 647 867.950 C 647 860.128, 648.730 860.141, 652.916 867.995 C 656.105 873.978, 658.305 876, 661.625 876 C 663.241 876, 663.250 875.900, 661.738 874.750 C 660.833 874.063, 658.498 870.828, 656.549 867.562 L 653.004 861.625 655.129 859.363 C 657.889 856.425, 658.165 849.945, 655.650 847.166 C 654.276 845.647, 652.287 845.083, 647.417 844.832 C 643.885 844.649, 640.997 844.837, 640.998 845.250 M 669 844.821 C 669 844.998, 669.580 845.723, 670.290 846.433 C 670.999 847.142, 673.764 854.422, 676.435 862.611 L 681.290 877.500 686.112 863 C 688.765 855.025, 691.399 847.719, 691.967 846.764 C 693.348 844.441, 693.396 844.500, 690.148 844.500 C 687.871 844.500, 687.481 844.803, 688.213 846 C 688.835 847.016, 688.019 851.038, 685.685 858.463 L 682.238 869.427 678.541 857.989 C 676.212 850.785, 675.242 846.419, 675.922 846.193 C 678.313 845.396, 676.767 844.500, 673 844.500 C 670.800 844.500, 669 844.645, 669 844.821 M 703.999 845.250 C 704 845.663, 704.675 846, 705.500 846 C 706.762 846, 707 848.217, 707 859.950 C 707 872.172, 706.783 874.030, 705.250 874.945 C 703.959 875.716, 705.730 875.925, 712 875.745 L 720.500 875.500 720.812 872.500 L 721.124 869.500 719.467 871.805 C 718.162 873.619, 717.033 874.045, 714.155 873.805 L 710.500 873.500 710.202 867.250 L 709.905 861 713.369 861 C 715.274 861, 717.060 861.563, 717.338 862.250 C 717.615 862.938, 717.878 862.363, 717.921 860.974 C 717.995 858.619, 717.728 858.473, 714 858.829 L 710 859.210 710 853.105 L 710 847 713.950 847 C 716.658 847, 718.221 847.551, 718.920 848.750 C 719.777 850.221, 719.944 850.021, 719.967 847.500 L 719.996 844.500 711.997 844.500 C 707.598 844.500, 703.999 844.837, 703.999 845.250 M 306.438 847.300 C 306.135 848.091, 306.024 851.160, 306.193 854.119 C 306.457 858.750, 306.800 859.543, 308.653 859.807 C 312.804 860.398, 315.717 852.566, 312.750 848.792 C 310.905 846.445, 307.111 845.548, 306.438 847.300 M 529 853.094 C 529 859.767, 529.083 860, 531.465 860 C 534.296 860, 536 857.466, 536 853.257 C 536 849.794, 534.292 847.443, 531.250 846.721 C 529.082 846.207, 529 846.440, 529 853.094 M 647 852.933 C 647 859.778, 647.078 860, 649.465 860 C 652.296 860, 654 857.466, 654 853.257 C 654 849.823, 652.320 847.446, 649.250 846.534 C 647.066 845.885, 647 846.072, 647 852.933 M 336 853.500 C 336 859.742, 336.098 860, 338.465 860 C 341.241 860, 343 857.479, 343 853.500 C 343 849.521, 341.241 847, 338.465 847 C 336.098 847, 336 847.258, 336 853.500 M 420.801 857.795 C 419.880 860.911, 419.278 863.611, 419.463 863.796 C 419.648 863.981, 421.312 863.990, 423.162 863.816 L 426.524 863.500 424.500 857.815 L 422.476 852.131 420.801 857.795" stroke="none" fill="#000000" fill-rule="evenodd"/>
</svg>